<svg width="423" height="417" viewBox="0 0 423 417" fill="none" xmlns="http://www.w3.org/2000/svg">
<rect x="26" y="20" width="397" height="397" rx="24" fill="#4945FF"/>
<g filter="url(#filter0_d_1115_124)">
<path d="M225 157.5C224.994 151.404 223.426 145.435 220.477 140.283C217.527 135.13 213.317 131.006 208.334 128.387V127.587C208.329 121.658 206.596 115.887 203.392 111.13C200.187 106.373 195.681 102.881 190.541 101.172C185.4 99.4628 179.898 99.6268 174.848 101.64C169.798 103.653 165.469 107.408 162.502 112.349C159.534 107.408 155.206 103.653 150.156 101.64C145.106 99.6268 139.604 99.4628 134.463 101.172C129.323 102.881 124.817 106.373 121.612 111.13C118.408 115.887 116.675 121.658 116.67 127.587V128.387C111.682 130.999 107.468 135.121 104.517 140.273C101.566 145.426 100 151.397 100 157.494C100 163.591 101.566 169.563 104.517 174.715C107.468 179.868 111.682 183.99 116.67 186.602V187.413C116.675 193.342 118.408 199.113 121.612 203.87C124.817 208.627 129.323 212.119 134.463 213.828C139.604 215.537 145.106 215.373 150.156 213.36C155.206 211.347 159.534 207.592 162.502 202.651C165.469 207.592 169.798 211.347 174.848 213.36C179.898 215.373 185.4 215.537 190.541 213.828C195.681 212.119 200.187 208.627 203.392 203.87C206.596 199.113 208.329 193.342 208.334 187.413V186.602C213.317 183.984 217.526 179.862 220.476 174.712C223.425 169.562 224.994 163.594 225 157.5ZM141.669 205.821C137.56 205.82 133.595 204.142 130.537 201.11C127.48 198.078 125.544 193.904 125.102 189.392C126.449 189.604 127.809 189.712 129.17 189.714H133.336C134.441 189.714 135.501 189.229 136.282 188.366C137.064 187.503 137.503 186.332 137.503 185.112C137.503 183.891 137.064 182.721 136.282 181.858C135.501 180.995 134.441 180.51 133.336 180.51H129.17C124.251 180.516 119.489 178.6 115.726 175.101C111.964 171.601 109.444 166.744 108.612 161.389C107.781 156.035 108.692 150.528 111.184 145.843C113.675 141.159 117.587 137.6 122.227 135.796C123.039 135.478 123.742 134.891 124.239 134.114C124.736 133.338 125.003 132.41 125.003 131.459V127.587C125.003 122.705 126.759 118.023 129.885 114.571C133.01 111.119 137.249 109.179 141.669 109.179C146.089 109.179 150.329 111.119 153.454 114.571C156.58 118.023 158.335 122.705 158.335 127.587V166.854C153.76 162.308 147.823 159.796 141.669 159.801C140.564 159.801 139.504 160.286 138.723 161.149C137.942 162.012 137.503 163.182 137.503 164.403C137.503 165.623 137.942 166.794 138.723 167.657C139.504 168.52 140.564 169.005 141.669 169.005C146.089 169.005 150.329 170.944 153.454 174.396C156.58 177.849 158.335 182.531 158.335 187.413C158.335 192.295 156.58 196.977 153.454 200.429C150.329 203.881 146.089 205.821 141.669 205.821ZM195.834 180.51H191.668C190.563 180.51 189.503 180.995 188.722 181.858C187.94 182.721 187.501 183.891 187.501 185.112C187.501 186.332 187.94 187.503 188.722 188.366C189.503 189.229 190.563 189.714 191.668 189.714H195.834C197.195 189.712 198.554 189.604 199.902 189.392C199.556 192.928 198.29 196.277 196.257 199.035C194.224 201.793 191.511 203.841 188.446 204.933C185.382 206.024 182.096 206.111 178.988 205.184C175.879 204.257 173.08 202.355 170.929 199.709C168.779 197.062 167.368 193.784 166.868 190.27C166.368 186.757 166.801 183.159 168.113 179.911C169.425 176.664 171.561 173.905 174.262 171.97C176.964 170.034 180.115 169.004 183.335 169.005C184.44 169.005 185.499 168.52 186.281 167.657C187.062 166.794 187.501 165.623 187.501 164.403C187.501 163.182 187.062 162.012 186.281 161.149C185.499 160.286 184.44 159.801 183.335 159.801C177.181 159.796 171.244 162.308 166.668 166.854V127.587C166.668 122.705 168.424 118.023 171.55 114.571C174.675 111.119 178.914 109.179 183.335 109.179C187.755 109.179 191.994 111.119 195.119 114.571C198.245 118.023 200.001 122.705 200.001 127.587V131.459C200.001 132.41 200.268 133.338 200.765 134.114C201.262 134.891 201.965 135.478 202.777 135.796C207.416 137.6 211.328 141.159 213.82 145.843C216.312 150.528 217.223 156.035 216.392 161.389C215.56 166.744 213.04 171.601 209.278 175.101C205.515 178.6 200.753 180.516 195.834 180.51ZM204.167 150.597C204.167 151.818 203.728 152.988 202.947 153.851C202.166 154.714 201.106 155.199 200.001 155.199H197.918C192.945 155.199 188.176 153.017 184.66 149.134C181.143 145.25 179.168 139.982 179.168 134.49V132.189C179.168 130.969 179.607 129.798 180.388 128.935C181.17 128.072 182.23 127.587 183.335 127.587C184.44 127.587 185.499 128.072 186.281 128.935C187.062 129.798 187.501 130.969 187.501 132.189V134.49C187.501 137.541 188.599 140.468 190.552 142.625C192.505 144.783 195.155 145.995 197.918 145.995H200.001C201.106 145.995 202.166 146.48 202.947 147.343C203.728 148.206 204.167 149.377 204.167 150.597ZM127.086 155.199H125.003C123.898 155.199 122.838 154.714 122.057 153.851C121.276 152.988 120.837 151.818 120.837 150.597C120.837 149.377 121.276 148.206 122.057 147.343C122.838 146.48 123.898 145.995 125.003 145.995H127.086C129.849 145.995 132.498 144.783 134.452 142.625C136.405 140.468 137.503 137.541 137.503 134.49V132.189C137.503 130.969 137.942 129.798 138.723 128.935C139.504 128.072 140.564 127.587 141.669 127.587C142.774 127.587 143.834 128.072 144.615 128.935C145.397 129.798 145.836 130.969 145.836 132.189V134.49C145.836 139.982 143.86 145.25 140.344 149.134C136.828 153.017 132.059 155.199 127.086 155.199Z" fill="white"/>
</g>
<rect x="243.75" y="118" width="106.25" height="11" rx="5.5" fill="white"/>
<rect x="243.75" y="161" width="106.25" height="11" rx="5.5" fill="white"/>
<rect x="243.75" y="204" width="106.25" height="11" rx="5.5" fill="white"/>
<rect x="100" y="240" width="250" height="11" rx="5.5" fill="white"/>
<rect x="100" y="283" width="250" height="11" rx="5.5" fill="white"/>
<rect x="100" y="326" width="250" height="11" rx="5.5" fill="white"/>
<defs>
<filter id="filter0_d_1115_124" x="0" y="0" width="325" height="315" filterUnits="userSpaceOnUse" color-interpolation-filters="sRGB">
<feFlood flood-opacity="0" result="BackgroundImageFix"/>
<feColorMatrix in="SourceAlpha" type="matrix" values="0 0 0 0 0 0 0 0 0 0 0 0 0 0 0 0 0 0 127 0" result="hardAlpha"/>
<feOffset/>
<feGaussianBlur stdDeviation="50"/>
<feComposite in2="hardAlpha" operator="out"/>
<feColorMatrix type="matrix" values="0 0 0 0 0 0 0 0 0 0 0 0 0 0 0 0 0 0 0.25 0"/>
<feBlend mode="normal" in2="BackgroundImageFix" result="effect1_dropShadow_1115_124"/>
<feBlend mode="normal" in="SourceGraphic" in2="effect1_dropShadow_1115_124" result="shape"/>
</filter>
</defs>
</svg>
